<?xml version="1.0" standalone="no"?>
<!DOCTYPE svg PUBLIC "-//W3C//DTD SVG 20010904//EN"
 "http://www.w3.org/TR/2001/REC-SVG-20010904/DTD/svg10.dtd">
<svg version="1.0" xmlns="http://www.w3.org/2000/svg"
 width="700.000000pt" height="700.000000pt" viewBox="0 0 700.000000 700.000000"
 preserveAspectRatio="xMidYMid meet">
<metadata>
Created by potrace 1.11, written by Peter Selinger 2001-2013
</metadata>
<g transform="translate(0.000000,700.000000) scale(0.100000,-0.100000)"
fill="#000000" stroke="none">
<path d="M2608 4992 l-497 -277 -1 -332 c0 -183 3 -333 6 -333 3 0 228 125
500 277 l494 278 0 332 c0 183 -1 333 -2 333 -2 -1 -227 -125 -500 -278z"/>
<path d="M3068 4058 l-958 -533 0 -332 c0 -183 2 -333 4 -333 3 0 436 238 962
530 526 292 961 530 965 530 4 0 182 -106 396 -236 213 -130 403 -245 421
-256 l32 -20 0 325 0 325 -421 262 c-232 144 -427 263 -433 266 -6 2 -442
-236 -968 -528z"/>
<path d="M3488 3087 l-538 -282 0 -342 0 -343 63 34 c34 19 279 151 544 294
l483 259 421 -263 c231 -145 422 -264 425 -264 2 0 4 148 4 328 l0 328 -422
265 c-232 145 -427 265 -433 266 -5 2 -252 -124 -547 -280z"/>
<path d="M2348 2459 l-238 -141 0 -330 c0 -181 3 -327 8 -325 4 2 114 64 245
137 l237 133 0 334 c0 183 -3 333 -7 333 -5 0 -115 -64 -245 -141z"/>
</g>
</svg>
